<?xml version="1.0" encoding="utf-8"?>
<svg viewBox="0 0 204 204" fill="none" xmlns="http://www.w3.org/2000/svg">
  <defs>
    <linearGradient id="paint0_linear_16_339" x1="-12.4348" y1="91.2145" x2="228.124" y2="40.098" gradientUnits="userSpaceOnUse">
      <stop stop-color="#AA367C"/>
      <stop offset="0" stop-color="#4A2FBD"/>
    </linearGradient>
  </defs>
  <path d="M 136.255 175.305 C 154.701 166.686 168.435 183.543 145.182 194.409 C 121.928 205.275 95.433 206.975 70.982 199.169 C 46.531 191.364 25.921 174.628 13.264 152.299 C 0.607 129.97 -3.166 103.69 2.697 78.702 C 8.559 53.713 23.627 31.854 44.894 17.484 C 66.161 3.114 92.064 -2.709 117.435 1.175 C 139.317 4.524 159.415 14.883 174.791 30.547 C 178.869 34.702 178.083 41.381 173.529 45.009 C 168.975 48.637 162.385 47.827 158.195 43.783 C 146.212 32.216 130.877 24.564 114.244 22.018 C 94.118 18.937 73.57 23.557 56.699 34.956 C 39.829 46.355 27.876 63.696 23.225 83.518 C 18.574 103.34 21.568 124.188 31.608 141.901 C 41.649 159.614 57.998 172.89 77.394 179.082 C 96.791 185.274 117.809 183.925 136.255 175.305 Z" fill="url(#paint0_linear_16_339)"/>
  <text style="fill: rgb(51, 51, 51); font-family: Arial, sans-serif; font-size: 22px; font-weight: 700; white-space: pre;" x="75.195" y="110.703">65 %</text>
</svg>